<?xml version="1.0" encoding="utf-8"?>
<!-- Generator: Adobe Illustrator 21.1.0, SVG Export Plug-In . SVG Version: 6.00 Build 0)  -->
<svg version="1.1" xmlns="http://www.w3.org/2000/svg" xmlns:xlink="http://www.w3.org/1999/xlink" x="0px" y="0px"
	 viewBox="0 0 412.7 371.5" style="enable-background:new 0 0 412.7 371.5;" xml:space="preserve">
<style type="text/css">
	.st0{fill:#A19387;}
	.st1{fill:#D6C4B4;}
	.st2{opacity:0.31;}
	.st3{filter:url(#Adobe_OpacityMaskFilter);}
	.st4{mask:url(#SVGID_1_);}
	.st5{fill:#514A44;}
	.st6{filter:url(#Adobe_OpacityMaskFilter_1_);}
	.st7{mask:url(#SVGID_2_);}
	.st8{fill:#E4D1BF;}
	.st9{opacity:0.65;}
	.st10{filter:url(#Adobe_OpacityMaskFilter_2_);}
	.st11{mask:url(#SVGID_3_);}
	.st12{fill:#323234;}
	.st13{fill:#A59892;}
	.st14{fill:#D7BB9E;}
	.st15{fill:#333333;}
	.st16{fill:#7A6F6B;}
	.st17{fill:#C9A47E;}
	.st18{fill:#FFFFFF;}
	.st19{fill:#423D41;}
</style>
<g id="Layer_1">
</g>
<g id="Layer_3">
	<path class="st0" d="M151.7,194.8c0,0,14.6,24.6,16.4,36c1.8,11.3-0.6,65.7,0,70.5c0.6,4.8,2.3,10.5,8.8,10.5
		c6.5,0,11.9-38.8,11.9-38.8l16-58.2l-44.6-20.1H151.7z"/>
	<path class="st1" d="M242,125.7c0,0-60.3-12.4-80.8-6.7c-20.5,5.7-38.5,13.4-46.1,25.4c-7.7,12-6.8,10.5-13.5,21.1
		c-6.7,10.6-14.8,33.5-15.3,39.8c-0.4,6.3,1.3,21.1,0,25.6c-1.3,4.5,1.6,30.5-0.1,35.4S76,285.6,76,289.7c0,4-3.1,23.8-3.1,28.7
		s0.2,9.4,2.8,9.4c2.7,0,4.6,1.5,10.4,0c5.8-1.5,14-0.2,15.2-3.1c1.2-2.9-5.6-13.3-5.6-18.6c0-5.3-0.2-18.6,0.7-21.5
		s11.4-17.7,12.6-23.5c1.2-5.8,6.5-16.9,7.7-17.7c1.2-0.7,15.7-16.7,19.8-22.5c4.1-5.8,6-5.8,7.7-9.7c1.7-3.9,5.8-3.9,5.8-3.9
		s27.3,14.3,27.8,20.6S242,125.7,242,125.7z"/>
</g>
<g id="Layer_2">
	<g class="st2">
		<defs>
			<filter id="Adobe_OpacityMaskFilter" filterUnits="userSpaceOnUse" x="82" y="311.3" width="330.7" height="60.2">
				<feFlood  style="flood-color:white;flood-opacity:1" result="back"/>
				<feBlend  in="SourceGraphic" in2="back" mode="normal"/>
			</filter>
		</defs>
		<mask maskUnits="userSpaceOnUse" x="82" y="311.3" width="330.7" height="60.2" id="SVGID_1_">
			<g class="st3">
				
					<image style="overflow:visible;" width="1396" height="269" xlink:href="704B05AC42731D7F.jpg"  transform="matrix(0.24 0 0 0.24 79.9258 309.182)">
				</image>
			</g>
		</mask>
		<g class="st4">
			<ellipse class="st5" cx="247.4" cy="341.4" rx="165.4" ry="30.1"/>
		</g>
	</g>
	<g class="st2">
		<defs>
			<filter id="Adobe_OpacityMaskFilter_1_" filterUnits="userSpaceOnUse" x="0" y="288.2" width="330.7" height="60.2">
				<feFlood  style="flood-color:white;flood-opacity:1" result="back"/>
				<feBlend  in="SourceGraphic" in2="back" mode="normal"/>
			</filter>
		</defs>
		<mask maskUnits="userSpaceOnUse" x="0" y="288.2" width="330.7" height="60.2" id="SVGID_2_">
			<g class="st6">
				
					<image style="overflow:visible;" width="1396" height="269" xlink:href="704B05AC42731D7C.jpg"  transform="matrix(0.24 0 0 0.24 -2.0765 286.0476)">
				</image>
			</g>
		</mask>
		<g class="st7">
			<ellipse class="st5" cx="165.4" cy="318.3" rx="165.4" ry="30.1"/>
		</g>
	</g>
	<path class="st8" d="M217,118c-2.5,2.7-7.6,1-23.7,36.6s-25.4,90.6-24.6,104.2c0.8,13.6,6.8,33,5.9,47.4s-3.5,30.6-6,34.3
		c-2.5,3.8,4.4,14.6,8.2,14.6c3.8,0,5.2,1.8,9.8,2.1c4.5,0.2,9.2-3.3,11.6-3.3c2.4,0,9.3,1.4,9.5-2.4c0.2-3.8-6.6-34.7-6.6-44.6
		c0-10,0.5-22.5,1.7-25.9c1.2-3.3,5.9-18.5,9-23c3.1-4.5,2.6-2.4,2.6-2.4s5.2,9.7,16.4,9.3c11.2-0.5,25.6-2,28.7-1.4
		c3.1,0.6,11.4-3.4,17.1-5.1c5.7-1.7,10.7-7.8,10.7-7.8s-0.7,24.9,0,29.7c0.7,4.7,3.3,26.6,3.3,30.9s4.3,16.4,6.9,19.5
		c2.6,3.1,0.5,10.7,3.6,10.7s21.4,0,22.3-1.7c0.9-1.7,8.9,0.4,2.4-12.4c-2.7-5.3-12.1-18.7-11.7-27.3c0.5-8.5,3.3-29.4,4-31.8
		c0.7-2.4,5.5-13.3,5.5-21.8s1.4-25.2,2.8-31.6c1.4-6.4-1.4-34.4-3.1-37.7c-1.7-3.3-10.2-20.4-14-24c-3.8-3.6-30.1-33.9-30.1-33.9
		L217,118z"/>
	<g>
		<g class="st9">
			<defs>
				<filter id="Adobe_OpacityMaskFilter_2_" filterUnits="userSpaceOnUse" x="199.9" y="95" width="108.8" height="117.9">
					<feFlood  style="flood-color:white;flood-opacity:1" result="back"/>
					<feBlend  in="SourceGraphic" in2="back" mode="normal"/>
				</filter>
			</defs>
			<mask maskUnits="userSpaceOnUse" x="199.9" y="95" width="108.8" height="117.9" id="SVGID_3_">
				<g class="st10">
					
						<image style="overflow:visible;" width="471" height="509" xlink:href="704B05AC42731D84.jpg"  transform="matrix(0.24 0 0 0.24 197.7658 92.942)">
					</image>
				</g>
			</mask>
			<g class="st11">
				<path class="st12" d="M217.5,95c0,0-3.4,14.3-12.6,30c-9.1,15.7-3.2,42.3-3.2,42.3s4.9,19.2,41.8,40.1
					c40,22.6,65.1-31.9,65.1-31.9l-3.5-67L217.5,95z"/>
			</g>
		</g>
		<g>
			<path class="st8" d="M193,112.9c0-2.6-0.4-6.2-2.7-9c-1.7-2.1-3.4-2.4-6-4.3c0,0-3.7-2.8-6.9-8.8c-3.7-6.9,0.3-13.4-1-21.6
				c-0.8-4.8-12.1-28.7-11-38.5c1.2-9.8,2-15.8,5.6-19.2c3.6-3.4,10.9-9.2,17.1-5.7c6.1,3.5,19.1,15.4,22.1,20.6
				c2.9,5.3,9.4,16.3,11.2,19.5s3.2,10.1,8.8,14.8c5.6,4.6,13,0.5,17.9,1.9c4.9,1.4,4.5,2.3,6.6,2.2c2.1-0.1,3-4,8.9-3.1
				c5.9,0.8,7.7,1.2,10.2,0.6c2.5-0.6,6.7-4.4,7.9-7.9c1.3-3.5,13.1-31.5,14.9-33.8c1.8-2.3,14.1-16.9,19.9-18.9s10.4-3.2,15.2,0.7
				c4.8,3.9,7.5,11,7.8,13.2c0.3,2.2,0.2,8.6,0.5,11.8c0.3,3.2-0.5,10.1-1.2,12.8c-0.7,2.7-6.9,19.6-6.7,21.2
				c0.2,1.6,1.1,6.2,1.9,9.5c0.8,3.3,1.6,6.1,1.4,8.9c-0.2,2.7,0.9,5.2-3.4,9.2c-4.3,4-9.2,8.4-9.3,9.5c-0.1,1.1-0.9,2-0.8,4.2
				c0.1,2.2,0.7,3.8-0.1,5.4c-0.7,1.6-4,5.8-4.4,7.7c-0.4,1.9-1.9,3.1-1.2,4.7c0.7,1.6,2.5,8.7,2.4,11.5c0,2.9,0,9.4-0.5,10.9
				c-0.4,1.5-5.2,11.6-7,14c-1.8,2.5-89.7-5-89.7-5L193,112.9z"/>
			<path class="st13" d="M319.8,26.8c0,0-25.9,5.9-25.5,19.6s-3.4,16.4,6.4,26.4c9.8,10,23.1,17.3,21.6,10.3
				c-1.4-7.1-8.8-6.7-4.4-17.9c4.4-11.2,9.4-10.6,8.9-20.8C326.4,34.2,319.8,26.8,319.8,26.8z"/>
			<path class="st13" d="M189.5,32.8c0,0,26.3,3.5,27.2,17.2c0.9,13.7,4.9,16-4,26.9S191.3,96.2,192,89s8.2-7.5,2.7-18.3
				s-10.3-9.7-10.8-19.9S189.5,32.8,189.5,32.8z"/>
			<path class="st14" d="M208.6,160.2c0.8,5.4,0.6,9.2,2.7,13.2c2.1,4,1.5,6.4,4.2,8.4c2.7,2,3.4,7,6.8,6.9
				c3.3-0.2,13.3,0.2,13.3,0.2s4-0.2,7.1,1.9c3.1,2.1,7.7,4.6,10.9,4c3.2-0.6,5.1-1.5,6.6-2.8c1.5-1.3,2.9,1.4,5.9,1.2
				c3-0.1,10-1.2,12.1-3.1c2.2-1.9,0.4-3.7,5.1-4.3c4.7-0.6,9.2-0.3,12.2-0.7c3-0.4,9.1-3.7,8.9-6.9s3.8-9.4,3.7-12.9
				c-0.2-3.5,0.8-4.3,2-6.3c1.2-2.1-8.8-9.4-12.2-12.2c-3.5-2.8-4.1-10.8-15.6-10.3c-11.5,0.5-40.5,5.1-46.5,5.9
				c-6,0.8-14.7,7.2-18.5,11.9C213.5,158.8,208.6,160.2,208.6,160.2z"/>
			<path class="st15" d="M237.5,178.1c1.4-1.9,3.7-2.3,8.3-4.7c4.7-2.4,8.5-4.9,11.8-5c2.2-0.1,4.9-0.3,13.4,5
				c6.4,7.6,9.9-8.8,9.9-8.8l-23.5-4.9l-19,8.7L237.5,178.1z"/>
			<path class="st14" d="M192.5,112.3c0,0-0.9-13.8,3.5-21.2s10.7-13.5,13.9-16.7s12.5-11.9,20.2-11.5s12.4-1.4,15.7,3.2
				s7.5,6.3,5.2,10s-4.7,6.8-4.3,9.9c0.4,3.1,1.6,5.2,2.6,8.8c1,3.6,7.3,11.9,7.1,15.7c-0.1,3.9-30,42.9-30,42.9s-10.4,0.8-13.8,5.1
				s-3.6,6-3.6,6s-2.4-2.9-5.7-9.4s-7.1-9.4-6.5-15.5c0.6-6.1,0.2-8.3,0.6-11.9c0.4-3.6,2-4.2,0.8-6.4S192.5,112.3,192.5,112.3z"/>
			<path class="st14" d="M261.2,120c0,0-3.1-6.8-2-12.5c1.1-5.7,1.8-7.6,3.3-12.3c1.5-4.8,3.1-7.5,2.2-10.6c-0.9-3.1-5.8-7.5-5-10.5
				c0.8-3,2.1-9.5,7.5-10.6s4-4,11.6-2.8c7.6,1.3,15.7,5.9,18.6,7.5s13.9,10.3,15.3,12.7c1.4,2.4,6.8,8.4,8,16.8s2,9.7-0.1,12.2
				s-5.1,4.3-4.4,6.4c0.7,2.2,2.3,16,2.4,17.7c0.1,1.7,3.1,6.3-1.3,13c-4.4,6.8-4.7,12.2-7.5,9.9c-2.8-2.4-17-12.5-19.7-17.1
				c-2.7-4.6-27.1-16.2-27.1-16.2L261.2,120z"/>
			<path class="st16" d="M254.4,122.5c-4.2,0.6-16.7,0.8-26.1,17s-9.4,23.4-8.9,25.2s-0.9,4.4,2.5,7.8c3.4,3.4,7.5,6.8,9.1,10.7
				c1.6,3.9,2.2,7.8,4.6,5.5s7.9-8.6,12.9-15.7c5.1-7.1,9.7-6.9,9.6-10.1s0.5-0.4,2.6,1.5s5.6,2.1,7.5,5c2,2.8,5.4,9.6,8.4,11.1
				c3,1.5,3.8,6.2,6.6,5.2c2.9-1,4.1-2.2,7-6.7c2.9-4.5,8.2-8.8,8-11.9c-0.1-3.1,0.6-7.9-0.5-11.7c-1.1-3.8-6.1-13.6-8.2-16.3
				c-2.1-2.6-9.3-10.7-12.6-12.4c-3.4-1.7-13.2-4.2-15.6-4.6C259,121.8,254.4,122.5,254.4,122.5z"/>
			<path class="st15" d="M255.1,129.9c-1.9-0.3-5.1-1.1-7.2-0.4s-5.9,3.7-5.8,5.5c0.1,1.7-0.3,2.3,0.2,4.7c0.5,2.4,5.5,4.4,5.5,4.4
				s-0.3,2.5,0.5,4.3s2.2,4.8,3.7,4.7s10.9,2.7,12.8-1.3c1.8-4,0.3-8.7,0.3-8.7s2.6-0.5,4.5-2.2c1.9-1.7,2.8-5.3,1.1-7.4
				c-1.7-2.1-4.9-5.7-7.8-5.6C260.1,128.1,255.1,129.9,255.1,129.9z"/>
			<path class="st17" d="M232.9,106.7c0,0-1.8-4.4-9-3c-7.1,1.4-10.7,7.7-10.7,7.7l0,4.8c0,0,0,0,0,0c0.1,1.7,0.7,4.5,1.9,5.9
				c1.5,1.8,5.4,1.4,8.2,1c2.7-0.4,6.1-1.9,7.8-3.2c1.8-1.3,3.4-8,3.4-8C236.6,112.9,232.9,106.7,232.9,106.7z M216.4,110.7
				c0,0-0.1,0.1-0.1,0.1C216.3,110.8,216.3,110.7,216.4,110.7C216.4,110.7,216.4,110.7,216.4,110.7z"/>
			<g>
				<path class="st18" d="M234.9,111.3c0,0-1.5,6.3-3.1,7.5c-1.6,1.2-4.7,2.6-7.2,3s-6.1,0.7-7.6-1c-1.4-1.7-2-5.7-1.7-6.6
					c0.3-0.9,2.2-3.7,3.4-4.5c1.2-0.8,5.4-2.8,6.4-2.8s5.1,0,6.3,1C232.6,108.9,234.9,111.3,234.9,111.3z"/>
				<g>
					<path class="st19" d="M226.3,107c2.5,0,3,0,4.5,0.7c0.5,1,1.3,3.1,1.3,4.2c0,4-3.3,7.2-7.2,7.2c-3.9,0-7.1-3.3-7.1-7.3
						c0-1.1,0.3-2.1,0.7-3C220.2,108,223.5,107,226.3,107z"/>
					<ellipse transform="matrix(8.333074e-03 -1 1 8.333074e-03 112.2142 335.076)" cx="225" cy="111" rx="4.5" ry="4.5"/>
					
						<ellipse transform="matrix(8.333074e-03 -1 1 8.333074e-03 112.8113 330.7437)" class="st18" cx="223.2" cy="108.5" rx="1.1" ry="1.1"/>
				</g>
				<path class="st15" d="M215.2,115.4c0,0,2-7.1,8-8c6-0.9,9.8,3.1,11.7,4c1.9,0.9-1.5-4.8-1.5-4.8s-1.7-4.1-8.3-2.8
					c-6.6,1.3-9.9,7.2-9.9,7.2L215.2,115.4z"/>
			</g>
			<path class="st17" d="M276.7,110.4c0,0,2.3,6.6,4.2,7.7c1.9,1.1,5.3,2.3,8.1,2.4c2.8,0.1,6.7,0.1,8-1.9c1-1.5,1.4-4.3,1.3-6
				c0,0,0,0,0,0l-0.5-4.8c0,0-4.1-5.9-11.4-6.6c-7.2-0.7-8.6,3.9-8.6,3.9S274.7,111.6,276.7,110.4z M294.7,107.5
				c0,0-0.1-0.1-0.1-0.1c0,0,0,0,0,0C294.7,107.5,294.7,107.5,294.7,107.5z"/>
			<g>
				<path class="st18" d="M276.7,108.8c0,0,2.1,6,3.8,7c1.7,1,4.9,2.1,7.4,2.2c2.5,0.1,6.1,0.1,7.3-1.7s1.4-5.7,1-6.6
					c-0.4-0.9-2.5-3.4-3.8-4s-5.5-2.2-6.6-2c-1,0.1-5,0.5-6.1,1.6C278.7,106.3,276.7,108.8,276.7,108.8z"/>
				<g>
					<path class="st19" d="M284.6,103.8c-2.5,0.3-2.9,0.3-4.4,1.1c-0.4,1-1,3.1-0.9,4.2c0.4,3.9,3.9,6.7,7.8,6.2
						c3.9-0.4,6.7-3.9,6.2-7.8c-0.1-1.1-0.5-2-1-2.9C290.7,104.2,287.4,103.5,284.6,103.8z"/>
					<ellipse transform="matrix(0.9942 -0.1078 0.1078 0.9942 -9.9146 31.4751)" cx="286.3" cy="107.5" rx="4.4" ry="4.4"/>
					
						<ellipse transform="matrix(0.9942 -0.1078 0.1078 0.9942 -9.6267 31.634)" class="st18" cx="287.9" cy="104.9" rx="1.1" ry="1.1"/>
				</g>
				<path class="st15" d="M296.4,110.8c0,0-2.7-6.7-8.6-7c-5.9-0.3-9.3,3.9-11.1,5c-1.8,1.1,1-4.8,1-4.8s1.2-4.2,7.9-3.5
					c6.6,0.6,10.4,6,10.4,6L296.4,110.8z"/>
			</g>
		</g>
	</g>
	<path class="st0" d="M154.2,209c0,0-12.2-33.8-13.3-43c-1-9.3-1.2,12.7-1.2,12.7s2.6,16.8,7.2,24.8
		C151.6,211.4,154.2,209,154.2,209z"/>
	<path class="st14" d="M221.6,261.2c0,0-12.2-33.8-13.3-43c-1-9.3-1.2,12.7-1.2,12.7s2.6,16.8,7.2,24.8S221.6,261.2,221.6,261.2z"/>
	<path class="st14" d="M279.9,254.6c0,0,12.2-33.8,13.3-43c1-9.3,1.2,12.7,1.2,12.7s-2.6,16.8-7.2,24.8
		C282.5,257,279.9,254.6,279.9,254.6z"/>
</g>
</svg>
