<?xml version="1.0" encoding="utf-8"?>
<!-- Generator: Adobe Illustrator 21.1.0, SVG Export Plug-In . SVG Version: 6.00 Build 0)  -->
<svg version="1.1" id="Layer_1" xmlns="http://www.w3.org/2000/svg" xmlns:xlink="http://www.w3.org/1999/xlink" x="0px" y="0px"
	 viewBox="0 0 350.5 350.7" style="enable-background:new 0 0 350.5 350.7;" xml:space="preserve">
<style type="text/css">
	.st0{fill:#FAF6F2;}
	.st1{fill:#E4D1BF;}
	.st2{opacity:0.65;}
	.st3{filter:url(#Adobe_OpacityMaskFilter);}
	.st4{mask:url(#SVGID_1_);}
	.st5{fill:#323234;}
	.st6{fill:#A59892;}
	.st7{fill:#D7BB9E;}
	.st8{fill:#333333;}
	.st9{fill:#7A6F6B;}
	.st10{fill:#C9A47E;}
	.st11{fill:#FFFFFF;}
	.st12{fill:#423D41;}
</style>
<circle class="st0" cx="175.3" cy="175.3" r="175.3"/>
<path class="st1" d="M115.4,230.4c-7.7,3.8-22.9,61.1-31.4,95.5c26.3,15.8,57.1,24.8,90,24.8c29.2,0,56.7-6.7,80.9-19.3
	c-6.9-31.1-44.2-89-44.2-89S126.5,225,115.4,230.4z"/>
<g class="st2">
	<defs>
		<filter id="Adobe_OpacityMaskFilter" filterUnits="userSpaceOnUse" x="105.1" y="181.2" width="116.7" height="120.4">
			<feFlood  style="flood-color:white;flood-opacity:1" result="back"/>
			<feBlend  in="SourceGraphic" in2="back" mode="normal"/>
		</filter>
	</defs>
	<mask maskUnits="userSpaceOnUse" x="105.1" y="181.2" width="116.7" height="120.4" id="SVGID_1_">
		<g class="st3">

				<image style="overflow:visible;" width="505" height="520" xlink:href="815BA8AC58536AB3.jpg"  transform="matrix(0.24 0 0 0.24 102.8527 179.0339)">
			</image>
		</g>
	</mask>
	<g class="st4">
		<path class="st5" d="M119.6,181.2c0,0-2.5,15.3-10.8,32.5s0,44.7,0,44.7s6.7,19.8,47.1,38.8c43.8,20.6,65.9-38.7,65.9-38.7
			l-9-70.1L119.6,181.2z"/>
	</g>
</g>
<g>
	<path class="st1" d="M95.3,202c-0.2-2.8-0.9-6.5-3.6-9.2c-2-2-3.8-2.2-6.6-4c0,0-4.1-2.6-8-8.7c-4.4-7-0.7-14.1-2.8-22.6
		c-1.2-5-15-29.2-14.6-39.5c0.5-10.4,0.8-16.7,4.4-20.6c3.5-3.9,10.8-10.5,17.5-7.3c6.7,3.2,21.3,14.6,24.8,19.9
		c3.5,5.3,11.2,16.4,13.3,19.6c2.1,3.2,4.1,10.4,10.4,14.8c6.3,4.4,13.7-0.5,19,0.6c5.3,1.1,4.9,2.1,7.1,1.8c2.2-0.3,2.8-4.4,9.2-4
		c6.3,0.4,8.2,0.7,10.8-0.1s6.6-5.1,7.7-8.9c1.1-3.8,11.2-34.1,12.9-36.7c1.7-2.6,13.4-18.9,19.4-21.5c5.9-2.6,10.7-4.2,16-0.4
		c5.4,3.7,8.8,10.9,9.2,13.2c0.5,2.3,0.9,9,1.5,12.3c0.6,3.3,0.3,10.6-0.2,13.6c-0.5,2.9-5.7,21.2-5.3,22.8c0.4,1.6,1.6,6.4,2.7,9.8
		c1.1,3.4,2.1,6.3,2.1,9.2c0,2.9,1.3,5.4-2.8,10c-4.2,4.6-9,9.5-9,10.7c0,1.2-0.8,2.1-0.5,4.5c0.3,2.3,1,3.9,0.4,5.7
		c-0.6,1.8-3.8,6.4-4,8.4c-0.3,2.1-1.8,3.4-0.9,5c0.9,1.6,3.3,8.9,3.5,11.9c0.2,3,0.7,9.9,0.4,11.5c-0.3,1.6-4.6,12.6-6.3,15.3
		c-1.7,2.7-94.6,1.9-94.6,1.9L95.3,202z"/>
	<path class="st6" d="M221.6,101.5c0,0-26.7,8.2-25.2,22.6s-2.2,17.5,8.9,27.2c11.1,9.7,25.6,16.4,23.6,9.1c-2.1-7.3-9.8-6.4-6-18.5
		s9-11.9,7.8-22.5C229.2,108.7,221.6,101.5,221.6,101.5z"/>
	<path class="st6" d="M85.2,118.1c0,0,27.9,1.6,29.9,15.9s6.4,16.4-2.1,28.5s-20.9,22-20.7,14.5c0.2-7.6,8-8.5,1.4-19.4
		s-11.6-9.4-12.9-20S85.2,118.1,85.2,118.1z"/>
	<path class="st7" d="M115.4,250.4c1.3,5.7,1.4,9.7,3.9,13.7c2.5,4,2.1,6.6,5.1,8.5c3,1.9,4.2,7.1,7.7,6.7
		c3.5-0.4,13.9-0.9,13.9-0.9s4.2-0.5,7.6,1.4s8.5,4.3,11.8,3.3c3.3-0.9,5.2-2,6.7-3.5c1.5-1.5,3.1,1.2,6.3,0.8s10.4-2.1,12.5-4.2
		s0.1-3.9,5-5c4.9-1,9.6-1.1,12.7-1.7c3.1-0.6,9.3-4.6,8.8-8s3.3-10.2,2.8-13.9c-0.4-3.7,0.5-4.6,1.6-6.8c1.1-2.3-9.9-9.1-13.8-11.8
		c-3.9-2.7-5.2-11-17.2-9.6s-42.2,8.6-48.4,9.9c-6.2,1.3-14.9,8.7-18.5,13.9C120.4,248.6,115.4,250.4,115.4,250.4z"/>
	<path class="st8" d="M147.2,267c1.3-2.1,3.7-2.7,8.4-5.6c4.7-2.9,8.5-5.9,12-6.2c2.3-0.2,5.1-0.7,14.5,4.2c7.4,7.4,9.7-10,9.7-10
		l-25.1-3.2l-19.3,10.7L147.2,267z"/>
	<path class="st7" d="M94.7,201.4c0,0-2.1-14.4,2-22.6c4-8.1,10.2-15,13.3-18.7c3.1-3.6,12.2-13.5,20.4-13.6
		c8.2-0.1,12.9-2.5,16.7,2.1c3.8,4.5,8.4,6,6.2,10.1c-2.1,4.1-4.4,7.5-3.7,10.7c0.7,3.2,2.1,5.4,3.4,9s8.6,11.9,8.7,16
		c0.2,4.1-28.1,47.5-28.1,47.5s-10.8,1.6-14.1,6.4c-3.2,4.8-3.3,6.6-3.3,6.6s-2.7-2.9-6.7-9.5c-4-6.6-8.2-9.3-8.1-15.8
		s-0.5-8.8-0.4-12.6c0.1-3.8,1.8-4.6,0.3-6.8C99.9,208.1,94.7,201.4,94.7,201.4z"/>
	<path class="st7" d="M167.5,204c0,0-3.8-6.9-3.1-12.9c0.8-6.1,1.3-8.1,2.5-13.2c1.2-5.1,2.7-8.1,1.4-11.3
		c-1.2-3.2-6.7-7.5-6.1-10.7c0.6-3.2,1.4-10.1,7-11.8c5.6-1.7,3.9-4.5,12-3.8c8,0.7,17,4.9,20.1,6.4c3.2,1.4,15.4,9.7,17,12.2
		c1.6,2.5,7.8,8.3,9.7,17s2.9,10.1,0.9,12.8c-2,2.7-5,4.9-4.1,7.1s3.7,16.6,3.9,18.4c0.2,1.8,3.8,6.3-0.3,13.8
		c-4.1,7.4-4,13.2-7.1,11c-3.1-2.3-18.8-11.8-22-16.4c-3.2-4.6-29.8-14.9-29.8-14.9L167.5,204z"/>
	<path class="st9" d="M160.5,207.2c-4.3,0.9-17.5,2.1-26,19.9s-8,25.4-7.4,27.2c0.6,1.8-0.6,4.6,3.3,8c3.8,3.3,8.4,6.6,10.4,10.5
		c2,3.9,2.9,8,5.2,5.5c2.4-2.6,7.6-9.7,12.3-17.5c4.8-7.8,9.7-8,9.3-11.4c-0.4-3.4,0.5-0.5,2.9,1.4s6,1.8,8.3,4.6
		c2.3,2.8,6.4,9.7,9.7,11c3.3,1.3,4.4,6.2,7.4,4.9c2.9-1.3,4.1-2.6,6.8-7.6c2.7-5,7.9-9.9,7.5-13.1c-0.4-3.2,0-8.3-1.5-12.2
		c-1.4-3.9-7.5-13.8-9.9-16.4s-10.6-10.5-14.3-12s-14.2-3.4-16.7-3.6S160.5,207.2,160.5,207.2z"/>
	<path class="st8" d="M161.9,214.9c-2-0.2-5.4-0.7-7.6,0.2c-2.2,0.9-5.9,4.4-5.7,6.2s-0.2,2.5,0.6,5c0.8,2.5,6.2,4.1,6.2,4.1
		s-0.1,2.6,0.9,4.5c1,1.9,2.7,4.9,4.2,4.7c1.5-0.2,11.7,1.9,13.3-2.4c1.6-4.3-0.3-9.1-0.3-9.1s2.7-0.8,4.6-2.7
		c1.9-1.9,2.5-5.8,0.6-7.9c-1.9-2.1-5.6-5.6-8.6-5.2C166.9,212.6,161.9,214.9,161.9,214.9z"/>
	<path class="st10" d="M136.7,192.3c0,0-2.3-4.5-9.6-2.5c-7.4,2-10.6,8.9-10.6,8.9l0.3,5.1c0,0,0,0,0-0.1c0.2,1.8,1.1,4.7,2.4,6
		c1.8,1.7,5.8,1,8.7,0.4c2.8-0.6,6.2-2.5,8-4c1.8-1.5,2.9-8.7,2.9-8.7C141.1,198.5,136.7,192.3,136.7,192.3z M119.6,197.9
		c0,0-0.1,0.1-0.1,0.1C119.6,197.9,119.6,197.9,119.6,197.9C119.6,197.8,119.6,197.8,119.6,197.9z"/>
	<g>
		<path class="st11" d="M139.1,197c0,0-1.1,6.8-2.7,8.1c-1.6,1.4-4.7,3.1-7.4,3.7c-2.6,0.6-6.4,1.2-8-0.4c-1.6-1.6-2.5-5.8-2.3-6.8
			c0.2-1,2-4.1,3.2-5s5.4-3.3,6.5-3.4c1.1-0.1,5.3-0.4,6.7,0.5S139.1,197,139.1,197z"/>
		<g>
			<path class="st12" d="M129.8,193.2c2.7-0.2,3.1-0.2,4.8,0.4c0.6,1,1.7,3.1,1.7,4.3c0.3,4.2-2.8,7.8-7,8.1c-4.1,0.3-7.7-2.9-8-7.1
				c-0.1-1.1,0.1-2.2,0.5-3.2C123.4,194.7,126.9,193.4,129.8,193.2z"/>

				<ellipse transform="matrix(0.9977 -6.705508e-02 6.705508e-02 0.9977 -12.9479 9.079)" cx="128.8" cy="197.4" rx="4.7" ry="4.8"/>

				<ellipse transform="matrix(0.9977 -6.705508e-02 6.705508e-02 0.9977 -12.789 8.9275)" class="st11" cx="126.6" cy="195" rx="1.2" ry="1.2"/>
		</g>
		<path class="st8" d="M118.8,202.9c0,0,1.5-7.6,7.7-9.1s10.5,2.4,12.6,3.3c2.1,0.8-1.9-4.9-1.9-4.9s-2.1-4.2-8.9-2.3
			c-6.8,1.9-9.8,8.3-9.8,8.3L118.8,202.9z"/>
	</g>
	<path class="st10" d="M183,192.7c0,0,2.9,6.7,5,7.7c2.1,1,5.8,2,8.7,1.9c2.9-0.1,7-0.5,8.3-2.6c1-1.6,1.1-4.7,0.9-6.4c0,0,0,0,0,0
		l-0.9-5c0,0-4.8-5.9-12.5-6c-7.7-0.1-8.7,4.8-8.7,4.8S181,194.1,183,192.7z M201.7,188.3c0,0-0.1-0.1-0.1-0.1c0,0,0,0,0,0
		C201.6,188.2,201.7,188.2,201.7,188.3z"/>
	<g>
		<path class="st11" d="M182.8,191c0,0,2.7,6.1,4.5,7s5.3,1.8,7.9,1.7c2.6-0.1,6.4-0.4,7.6-2.4c1.2-1.9,1-6.1,0.5-7
			s-2.9-3.4-4.3-3.9c-1.4-0.6-6-1.8-7-1.6s-5.2,1-6.3,2.1C184.7,188.2,182.8,191,182.8,191z"/>
		<g>
			<path class="st12" d="M190.8,185.1c-2.6,0.5-3,0.5-4.5,1.5c-0.3,1.1-0.8,3.4-0.6,4.5c0.7,4,4.6,6.7,8.7,5.9s6.7-4.6,5.9-8.7
				c-0.2-1.1-0.6-2.1-1.3-3C197.2,185,193.6,184.6,190.8,185.1z"/>
			<ellipse transform="matrix(0.9832 -0.1824 0.1824 0.9832 -31.2167 38.3334)" cx="192.8" cy="188.9" rx="4.6" ry="4.6"/>

				<ellipse transform="matrix(0.9832 -0.1824 0.1824 0.9832 -30.6732 38.5576)" class="st11" cx="194.3" cy="186" rx="1.2" ry="1.2"/>
		</g>
		<path class="st8" d="M203.7,191.6c0,0-3.3-6.9-9.6-6.7c-6.3,0.2-9.5,4.9-11.3,6.2c-1.8,1.3,0.6-5.1,0.6-5.1s1-4.5,8-4.4
			c7,0.1,11.4,5.5,11.4,5.5L203.7,191.6z"/>
	</g>
</g>
</svg>
