<?xml version="1.0" encoding="utf-8"?>
<!-- Generator: Adobe Illustrator 21.1.0, SVG Export Plug-In . SVG Version: 6.00 Build 0)  -->
<svg version="1.1" id="Layer_1" xmlns="http://www.w3.org/2000/svg" xmlns:xlink="http://www.w3.org/1999/xlink" x="0px" y="0px"
	 viewBox="0 0 350.5 350.7" style="enable-background:new 0 0 350.5 350.7;" xml:space="preserve">
<style type="text/css">
	.st0{fill:#FAF6F2;}
	.st1{fill:#EDEAE9;}
	.st2{opacity:0.65;}
	.st3{filter:url(#Adobe_OpacityMaskFilter);}
	.st4{mask:url(#SVGID_1_);}
	.st5{fill:#323234;}
	.st6{fill:#DBD6D3;}
	.st7{fill:#A59892;}
	.st8{fill:#333333;}
	.st9{fill:#362C24;}
	.st10{fill:#C9C1BE;}
	.st11{fill:#FFFFFF;}
	.st12{fill:#423D41;}
</style>
<circle class="st0" cx="175.3" cy="175.3" r="175.3"/>
<path class="st1" d="M115.4,230.4c-7.7,3.8-22.9,61.1-31.4,95.5c26.3,15.8,57.1,24.8,90,24.8c29.2,0,56.7-6.7,80.9-19.3
	c-6.9-31.1-44.2-89-44.2-89S126.5,225,115.4,230.4z"/>
<g class="st2">
	<defs>
		<filter id="Adobe_OpacityMaskFilter" filterUnits="userSpaceOnUse" x="105.1" y="181.2" width="116.7" height="120.4">
			<feFlood  style="flood-color:white;flood-opacity:1" result="back"/>
			<feBlend  in="SourceGraphic" in2="back" mode="normal"/>
		</filter>
	</defs>
	<mask maskUnits="userSpaceOnUse" x="105.1" y="181.2" width="116.7" height="120.4" id="SVGID_1_">
		<g class="st3">
			
				<image style="overflow:visible;" width="505" height="520" xlink:href="4EB4AA6F6B37C643.jpg"  transform="matrix(0.24 0 0 0.24 102.8527 179.0339)">
			</image>
		</g>
	</mask>
	<g class="st4">
		<path class="st5" d="M119.6,181.2c0,0-2.5,15.3-10.8,32.5s0,44.7,0,44.7s6.7,19.8,47.1,38.8c43.8,20.6,65.9-38.7,65.9-38.7
			l-9-70.1L119.6,181.2z"/>
	</g>
</g>
<g>
	<path class="st6" d="M96.9,181.8c0.4-2.9,0.3-6.9-1.9-10.3c-1.7-2.5-3.5-3.1-6.2-5.5c0,0-3.8-3.5-6.7-10.6
		c-3.3-8.2,2-14.9,1.5-24.2c-0.3-5.5-10-33.5-7.5-44.2c2.5-10.8,4.1-17.4,8.6-20.7c4.5-3.4,13.3-8.9,19.7-4.2
		c6.4,4.7,19.4,19.5,22.1,25.7c2.6,6.2,8.5,19.4,10.1,23.1c1.6,3.7,2.3,11.7,8,17.5c5.7,5.8,14.5,2.1,19.8,4.3
		c5.3,2.2,4.7,3.1,7.1,3.3c2.3,0.1,3.8-4.1,10.4-2.4c6.5,1.7,8.4,2.3,11.3,2c2.9-0.4,8-4.1,9.8-7.8c1.8-3.8,18.4-33.5,20.7-35.9
		c2.3-2.4,17.7-17.1,24.5-18.7c6.7-1.5,12-2.3,16.8,2.7c4.9,5,7,13.2,7.1,15.7c0,2.5-0.8,9.6-0.8,13.2c0,3.6-1.8,11.2-2.9,14.1
		c-1.1,3-10.1,21-10,22.8c0.1,1.8,0.5,7,0.9,10.8c0.5,3.8,1,7,0.4,10.1c-0.5,3,0.3,5.9-4.9,9.9c-5.3,4-11.3,8.2-11.5,9.5
		c-0.3,1.2-1.2,2.1-1.4,4.6c-0.2,2.5,0.3,4.3-0.7,6c-1,1.7-5.2,5.9-5.9,8c-0.7,2.1-2.5,3.2-1.9,5.1c0.6,1.8,1.7,10,1.3,13.2
		s-1.2,10.5-1.8,12.1c-0.6,1.6-7.2,12.3-9.5,14.8C221,248,123.9,229,123.9,229L96.9,181.8z"/>
	<path class="st7" d="M248.7,101.2c0,0-29.5,3.4-30.8,18.7s-5.8,17.9,4,30.2c9.7,12.3,23.6,22.1,22.9,14.1c-0.7-8-9-8.6-2.7-20.5
		s11.8-10.7,12.5-22.1S248.7,101.2,248.7,101.2z"/>
	<path class="st7" d="M102.6,92c0,0,28.9,7.1,28.2,22.5c-0.7,15.4,3.5,18.4-7.7,29.5c-11.2,11-26.2,19-24.5,11.1
		c1.7-7.9,10-7.4,5.3-20s-10.4-12.1-9.6-23.5S102.6,92,102.6,92z"/>
	<path class="st1" d="M108.5,236.4c0.2,6.2-0.4,10.4,1.4,15.1c1.9,4.7,0.9,7.3,3.7,9.9c2.8,2.6,3,8.2,6.7,8.5
		c3.7,0.2,14.8,1.8,14.8,1.8s4.5,0.3,7.7,3c3.2,2.7,8,6.1,11.7,5.8c3.7-0.3,5.8-1,7.7-2.3c1.8-1.3,3,1.9,6.4,2.1
		c3.4,0.2,11.2-0.1,13.9-1.9c2.6-1.8,0.9-4.1,6.2-4.2c5.3-0.1,10.3,0.8,13.7,0.7c3.4-0.1,10.6-3,10.8-6.6c0.2-3.6,5.4-10.1,5.7-14
		c0.2-3.9,1.4-4.7,3-6.8c1.5-2.2-8.6-11.5-12.2-15.1c-3.5-3.6-3.2-12.6-16.1-13.4c-12.9-0.8-45.8,0.8-52.6,0.9
		c-6.8,0.1-17.2,6.2-22,11C114.1,235.4,108.5,236.4,108.5,236.4z"/>
	<path class="st8" d="M138.5,259.9c1.8-1.9,4.4-2.1,9.9-4.2c5.5-2.2,10.1-4.5,13.8-4.2c2.5,0.2,5.5,0.2,14.3,7.2
		c6.3,9.2,12.1-8.6,12.1-8.6l-25.6-8.3l-22.3,7.4L138.5,259.9z"/>
	<path class="st9" d="M96.3,181.1c0,0,0.7-15.5,6.4-23.2c5.8-7.7,13.6-13.8,17.5-16.9s15.4-11.8,24-10.3c8.6,1.5,14-0.1,17.1,5.4
		c3.1,5.5,7.6,7.9,4.5,11.8c-3,3.9-6,7-5.9,10.5s1.2,6,1.9,10.1c0.7,4.1,6.7,14.1,6,18.4c-0.6,4.3-38.7,44.2-38.7,44.2
		s-11.7-0.4-16,4c-4.3,4.4-4.7,6.2-4.7,6.2s-2.3-3.6-5.2-11.2s-6.8-11.3-5.4-18.1c1.4-6.8,1.2-9.3,2.1-13.2s2.8-4.5,1.7-7
		C100.5,189.1,96.3,181.1,96.3,181.1z"/>
	<path class="st1" d="M172.1,198c0,0-2.7-7.9-0.7-14.1s3-8.2,5.2-13.3c2.3-5.1,4.4-8,3.7-11.5s-5.6-9.1-4.3-12.4s3.5-10.3,9.6-11
		c6.2-0.7,5-4,13.3-1.7c8.3,2.3,16.8,8.5,19.8,10.6c3,2.1,14.2,13.2,15.5,16.1c1.2,2.9,6.5,10.2,6.8,19.7c0.3,9.5,1.1,11.1-1.6,13.6
		s-6.2,4.2-5.7,6.7c0.5,2.5,0.6,18.1,0.5,20c-0.1,1.9,2.7,7.4-3,14.4c-5.7,7-6.8,13.1-9.6,10.1c-2.8-3-17.4-16-19.9-21.4
		c-2.5-5.4-28.3-21.4-28.3-21.4L172.1,198z"/>
	<path class="st10" d="M164.1,200c-4.7,0.1-18.8-1.2-31.1,15.8s-13.3,25-13,27c0.3,2-1.5,4.7,1.9,9s7.5,8.5,8.9,13.1
		c1.3,4.5,1.5,9,4.4,6.7s9.8-8.7,16.3-15.9s11.7-6.5,11.9-10.1c0.2-3.6,0.7-0.4,2.8,2c2.1,2.4,6,3,7.8,6.4c1.8,3.4,4.8,11.4,8,13.4
		c3.2,2,3.4,7.4,6.8,6.6c3.3-0.8,4.8-2,8.6-6.6c3.8-4.7,10.2-8.8,10.4-12.3c0.2-3.5,1.6-8.7,0.8-13.1c-0.8-4.4-5.2-15.9-7.2-19.1
		s-9-13.1-12.6-15.4c-3.6-2.3-14.2-6.3-16.8-7C169.4,199.7,164.1,200,164.1,200z"/>
	<path class="st8" d="M164.1,208.3c-2.1-0.6-5.6-1.8-8-1.3s-7,3.4-7.1,5.4c-0.1,1.9-0.6,2.6-0.3,5.3c0.3,2.8,5.6,5.5,5.6,5.5
		s-0.7,2.7,0,4.9c0.7,2.1,1.9,5.6,3.5,5.7c1.6,0.1,11.9,4.3,14.4,0.1c2.5-4.2,1.4-9.6,1.4-9.6s2.9-0.3,5.3-1.9
		c2.4-1.6,3.8-5.6,2.1-8.1s-4.7-6.9-8-7.1C169.8,206.9,164.1,208.3,164.1,208.3z"/>
	<path class="st6" d="M142.1,179.8c0,0-1.5-5.1-9.6-4.4s-12.8,7.3-12.8,7.3l-0.6,5.4c0,0,0,0,0-0.1c-0.1,1.9,0.2,5.1,1.4,6.8
		c1.5,2.2,5.9,2.2,9,2.2c3.1-0.1,7-1.4,9.1-2.6c2.1-1.2,4.7-8.5,4.7-8.5C145.5,187.1,142.1,179.8,142.1,179.8z M123.2,182.2
		c0,0-0.1,0.1-0.1,0.1C123.1,182.2,123.1,182.2,123.2,182.2C123.2,182.2,123.2,182.2,123.2,182.2z"/>
	<g>
		<path class="st11" d="M143.7,185.1c0,0-2.4,6.9-4.4,8s-5.6,2.4-8.4,2.4c-2.9,0.1-6.9,0-8.3-2c-1.4-2-1.5-6.6-1.1-7.5
			c0.4-1,2.9-3.9,4.4-4.6c1.5-0.7,6.3-2.4,7.5-2.3c1.2,0.1,5.6,0.7,6.9,1.9S143.7,185.1,143.7,185.1z"/>
		<g>
			<path class="st12" d="M134.7,179.3c2.8,0.3,3.3,0.4,5,1.3c0.4,1.1,1.1,3.6,1,4.9c-0.5,4.4-4.5,7.6-8.9,7.1s-7.5-4.5-7-9
				c0.1-1.2,0.5-2.3,1.1-3.3C127.8,179.7,131.6,178.9,134.7,179.3z"/>
			<ellipse transform="matrix(0.1168 -0.9932 0.9932 0.1168 -64.9525 294.0021)" cx="132.8" cy="183.5" rx="5.1" ry="5"/>
			
				<ellipse transform="matrix(0.1168 -0.9932 0.9932 0.1168 -63.5843 289.579)" class="st11" cx="131" cy="180.5" rx="1.3" ry="1.3"/>
		</g>
		<path class="st8" d="M121.3,187.3c0,0,3.1-7.7,9.9-8s10.5,4.6,12.5,5.9c2,1.3-1.1-5.6-1.1-5.6s-1.4-4.8-8.9-4.1
			c-7.5,0.7-11.9,6.8-11.9,6.8L121.3,187.3z"/>
	</g>
	<path class="st6" d="M190.5,189.2c0,0,1.7,7.6,3.7,9c2,1.5,5.7,3.2,8.7,3.6c3.1,0.4,7.4,0.9,9.2-1.1c1.3-1.5,2.1-4.7,2.2-6.6
		c0,0,0,0.1,0,0.1l0-5.4c0,0-3.9-7.1-11.9-8.7s-10.1,3.3-10.1,3.3S188.1,190.3,190.5,189.2z M211,188.2c0,0-0.1-0.1-0.1-0.1
		c0,0,0,0,0,0C210.9,188.1,210.9,188.1,211,188.2z"/>
	<g>
		<path class="st11" d="M190.6,187.4c0,0,1.6,6.9,3.4,8.3c1.8,1.3,5.2,2.9,8,3.3s6.8,0.8,8.4-1s2.2-6.2,1.9-7.2
			c-0.3-1-2.4-4.1-3.7-5c-1.4-0.9-5.9-3.1-7.1-3.1s-5.6,0-7,1C193.2,184.8,190.6,187.4,190.6,187.4z"/>
		<g>
			<path class="st12" d="M200.1,182.7c-2.8,0-3.3,0-5,0.7c-0.5,1-1.5,3.4-1.5,4.6c0,4.4,3.5,7.9,7.9,7.9s7.9-3.5,7.9-7.9
				c0-1.2-0.3-2.3-0.7-3.3C206.9,183.9,203.2,182.7,200.1,182.7z"/>
			<circle cx="201.5" cy="187.1" r="4.9"/>
			<circle class="st11" cx="203.6" cy="184.4" r="1.3"/>
		</g>
		<path class="st8" d="M212.4,192c0,0-2.2-7.8-8.8-8.9c-6.6-1.1-10.8,3.3-13,4.3c-2.1,1,1.7-5.3,1.7-5.3s1.9-4.5,9.2-3
			c7.3,1.5,10.9,8,10.9,8L212.4,192z"/>
	</g>
</g>
</svg>
