<?xml version="1.0" encoding="utf-8"?>
<!-- Generator: Adobe Illustrator 21.1.0, SVG Export Plug-In . SVG Version: 6.00 Build 0)  -->
<svg version="1.1" xmlns="http://www.w3.org/2000/svg" xmlns:xlink="http://www.w3.org/1999/xlink" x="0px" y="0px"
	 viewBox="0 0 450 450" style="enable-background:new 0 0 450 450;" xml:space="preserve">
<style type="text/css">
	.st0{fill:#E4D1BF;}
	.st1{fill:#A19387;}
	.st2{fill:#D6C4B4;}
	.st3{opacity:0.31;}
	.st4{filter:url(#Adobe_OpacityMaskFilter);}
	.st5{mask:url(#SVGID_1_);}
	.st6{fill:#514A44;}
	.st7{filter:url(#Adobe_OpacityMaskFilter_1_);}
	.st8{mask:url(#SVGID_2_);}
	.st9{opacity:0.65;}
	.st10{filter:url(#Adobe_OpacityMaskFilter_2_);}
	.st11{mask:url(#SVGID_3_);}
	.st12{fill:#323234;}
	.st13{fill:#A59892;}
	.st14{fill:#D7BB9E;}
	.st15{fill:#333333;}
	.st16{fill:#7A6F6B;}
	.st17{fill:#C9A47E;}
	.st18{fill:#FFFFFF;}
	.st19{fill:#423D41;}
	.st20{fill:#555556;}
	.st21{fill:#4C4C4C;}
	.st22{fill:#646468;}
	.st23{fill:#F7FAE4;}
	.st24{fill:#161713;}
	.st25{fill:#E6D9C9;}
</style>
<g id="Layer_1">
	<path class="st0" d="M267.5,478.5c-6.2,3.1-18.4,49.1-25.2,76.8c21.2,12.7,45.9,20,72.4,20c23.5,0,45.6-5.4,65-15.5
		c-5.5-25-35.6-71.5-35.6-71.5S276.4,474.1,267.5,478.5z"/>
	
		<image style="overflow:visible;" width="876" height="754" xlink:href="../../Screen Shot 2018-04-25 at 11.31.29 AM.png"  transform="matrix(0.4589 0 0 0.4589 538.8216 -216.6473)">
	</image>
</g>
<g id="Layer_3">
	<path class="st1" d="M162.5,244.7c0,0,14.6,24.6,16.4,36s-0.6,65.7,0,70.5s2.3,10.5,8.8,10.5s11.9-38.8,11.9-38.8l16-58.2
		L171,244.7H162.5z"/>
	<path class="st2" d="M252.8,175.6c0,0-60.3-12.4-80.8-6.7c-20.5,5.7-38.5,13.4-46.1,25.4c-7.7,12-6.8,10.5-13.5,21.1
		c-6.7,10.6-14.8,33.5-15.3,39.8c-0.4,6.3,1.3,21.1,0,25.6c-1.3,4.5,1.6,30.5-0.1,35.4s-10.2,19.3-10.2,23.3c0,4-3.1,23.8-3.1,28.7
		s0.2,9.4,2.8,9.4s4.6,1.5,10.4,0c5.8-1.5,14-0.2,15.2-3.1c1.2-2.9-5.6-13.3-5.6-18.6c0-5.3-0.2-18.6,0.7-21.5s11.4-17.7,12.6-23.5
		c1.2-5.8,6.5-16.9,7.7-17.7c1.2-0.7,15.7-16.7,19.8-22.5s6-5.8,7.7-9.7c1.7-3.9,5.8-3.9,5.8-3.9s27.3,14.3,27.8,20.6
		C189.3,284,252.8,175.6,252.8,175.6z"/>
</g>
<g id="Layer_2">
	<g class="st3">
		<defs>
			<filter id="Adobe_OpacityMaskFilter" filterUnits="userSpaceOnUse" x="92.8" y="361.1" width="330.7" height="60.2">
				<feFlood  style="flood-color:white;flood-opacity:1" result="back"/>
				<feBlend  in="SourceGraphic" in2="back" mode="normal"/>
			</filter>
		</defs>
		<mask maskUnits="userSpaceOnUse" x="92.8" y="361.1" width="330.7" height="60.2" id="SVGID_1_">
			<g class="st4">
				
					<image style="overflow:visible;" width="1396" height="269" xlink:href="704B05AC42731D7D.jpg"  transform="matrix(0.24 0 0 0.24 90.72 359.0299)">
				</image>
			</g>
		</mask>
		<g class="st5">
			<ellipse class="st6" cx="258.2" cy="391.2" rx="165.4" ry="30.1"/>
		</g>
	</g>
	<g class="st3">
		<defs>
			<filter id="Adobe_OpacityMaskFilter_1_" filterUnits="userSpaceOnUse" x="10.8" y="338" width="330.7" height="60.2">
				<feFlood  style="flood-color:white;flood-opacity:1" result="back"/>
				<feBlend  in="SourceGraphic" in2="back" mode="normal"/>
			</filter>
		</defs>
		<mask maskUnits="userSpaceOnUse" x="10.8" y="338" width="330.7" height="60.2" id="SVGID_2_">
			<g class="st7">
				
					<image style="overflow:visible;" width="1396" height="269" xlink:href="704B05AC42731D83.jpg"  transform="matrix(0.24 0 0 0.24 8.7177 335.9056)">
				</image>
			</g>
		</mask>
		<g class="st8">
			<ellipse class="st6" cx="176.2" cy="368.1" rx="165.4" ry="30.1"/>
		</g>
	</g>
	<path class="st0" d="M227.8,167.8c-2.5,2.7-7.6,1-23.7,36.6s-25.4,90.6-24.6,104.2c0.8,13.6,6.8,33,5.9,47.4s-3.5,30.6-6,34.3
		c-2.5,3.8,4.4,14.6,8.2,14.6s5.2,1.8,9.8,2.1c4.5,0.2,9.2-3.3,11.6-3.3s9.3,1.4,9.5-2.4c0.2-3.8-6.6-34.7-6.6-44.6
		c0-10,0.5-22.5,1.7-25.9c1.2-3.3,5.9-18.5,9-23c3.1-4.5,2.6-2.4,2.6-2.4s5.2,9.7,16.4,9.3c11.2-0.5,25.6-2,28.7-1.4
		s11.4-3.4,17.1-5.1c5.7-1.7,10.7-7.8,10.7-7.8s-0.7,24.9,0,29.7c0.7,4.7,3.3,26.6,3.3,30.9s4.3,16.4,6.9,19.5
		c2.6,3.1,0.5,10.7,3.6,10.7s21.4,0,22.3-1.7c0.9-1.7,8.9,0.4,2.4-12.4c-2.7-5.3-12.1-18.7-11.7-27.3s3.3-29.4,4-31.8
		c0.7-2.4,5.5-13.3,5.5-21.8c0-8.5,1.4-25.2,2.8-31.6c1.4-6.4-1.4-34.4-3.1-37.7c-1.7-3.3-10.2-20.4-14-24
		C316.3,199.3,290,169,290,169L227.8,167.8z"/>
	<g>
		<g class="st9">
			<defs>
				<filter id="Adobe_OpacityMaskFilter_2_" filterUnits="userSpaceOnUse" x="210.7" y="144.9" width="108.8" height="117.9">
					<feFlood  style="flood-color:white;flood-opacity:1" result="back"/>
					<feBlend  in="SourceGraphic" in2="back" mode="normal"/>
				</filter>
			</defs>
			<mask maskUnits="userSpaceOnUse" x="210.7" y="144.9" width="108.8" height="117.9" id="SVGID_3_">
				<g class="st10">
					
						<image style="overflow:visible;" width="471" height="509" xlink:href="704B05AC42731D85.jpg"  transform="matrix(0.24 0 0 0.24 208.56 142.8)">
					</image>
				</g>
			</mask>
			<g class="st11">
				<path class="st12" d="M228.3,144.9c0,0-3.4,14.3-12.6,30c-9.1,15.7-3.2,42.3-3.2,42.3s4.9,19.2,41.8,40.1
					c40,22.6,65.1-31.9,65.1-31.9l-3.5-67L228.3,144.9z"/>
			</g>
		</g>
		<g>
			<path class="st0" d="M203.8,162.8c0-2.6-0.4-6.2-2.7-9c-1.7-2.1-3.4-2.4-6-4.3c0,0-3.7-2.8-6.9-8.8c-3.7-6.9,0.3-13.4-1-21.6
				c-0.8-4.8-12.1-28.7-11-38.5c1.2-9.8,2-15.8,5.6-19.2s10.9-9.2,17.1-5.7C205,59.3,218,71.2,221,76.5c2.9,5.3,9.4,16.3,11.2,19.5
				c1.8,3.2,3.2,10.1,8.8,14.8c5.6,4.6,13,0.5,17.9,1.9c4.9,1.4,4.5,2.3,6.6,2.2c2.1-0.1,3-4,8.9-3.1c5.9,0.8,7.7,1.2,10.2,0.6
				s6.7-4.4,7.9-7.9c1.3-3.5,13.1-31.5,14.9-33.8c1.8-2.3,14.1-16.9,19.9-18.9c5.8-2,10.4-3.2,15.2,0.7c4.8,3.9,7.5,11,7.8,13.2
				c0.3,2.2,0.2,8.6,0.5,11.8c0.3,3.2-0.5,10.1-1.2,12.8c-0.7,2.7-6.9,19.6-6.7,21.2c0.2,1.6,1.1,6.2,1.9,9.5s1.6,6.1,1.4,8.9
				c-0.2,2.7,0.9,5.2-3.4,9.2c-4.3,4-9.2,8.4-9.3,9.5c-0.1,1.1-0.9,2-0.8,4.2s0.7,3.8-0.1,5.4c-0.7,1.6-4,5.8-4.4,7.7
				c-0.4,1.9-1.9,3.1-1.2,4.7c0.7,1.6,2.5,8.7,2.4,11.5c0,2.9,0,9.4-0.5,10.9c-0.4,1.5-5.2,11.6-7,14c-1.8,2.5-89.7-5-89.7-5
				L203.8,162.8z"/>
			<path class="st13" d="M330.5,76.7c0,0-25.9,5.9-25.5,19.6c0.4,13.7-3.4,16.4,6.4,26.4s23.1,17.3,21.6,10.3
				c-1.4-7.1-8.8-6.7-4.4-17.9c4.4-11.2,9.4-10.6,8.9-20.8C337.2,84.1,330.5,76.7,330.5,76.7z"/>
			<path class="st13" d="M200.2,82.7c0,0,26.3,3.5,27.2,17.2s4.9,16-4,26.9c-8.9,10.9-21.4,19.4-20.6,12.2c0.8-7.2,8.2-7.5,2.7-18.3
				s-10.3-9.7-10.8-19.9S200.2,82.7,200.2,82.7z"/>
			<path class="st14" d="M219.4,210c0.8,5.4,0.6,9.2,2.7,13.2c2.1,4,1.5,6.4,4.2,8.4c2.7,2,3.4,7,6.8,6.9c3.3-0.2,13.3,0.2,13.3,0.2
				s4-0.2,7.1,1.9c3.1,2.1,7.7,4.6,10.9,4c3.2-0.6,5.1-1.5,6.6-2.8c1.5-1.3,2.9,1.4,5.9,1.2s10-1.2,12.1-3.1
				c2.2-1.9,0.4-3.7,5.1-4.3c4.7-0.6,9.2-0.3,12.2-0.7c3-0.4,9.1-3.7,8.9-6.9s3.8-9.4,3.7-12.9s0.8-4.3,2-6.3
				c1.2-2.1-8.8-9.4-12.2-12.2c-3.5-2.8-4.1-10.8-15.6-10.3c-11.5,0.5-40.5,5.1-46.5,5.9c-6,0.8-14.7,7.2-18.5,11.9
				C224.3,208.6,219.4,210,219.4,210z"/>
			<path class="st15" d="M248.3,228c1.4-1.9,3.7-2.3,8.3-4.7c4.7-2.4,8.5-4.9,11.8-5c2.2-0.1,4.9-0.3,13.4,5
				c6.4,7.6,9.9-8.8,9.9-8.8l-23.5-4.9l-19,8.7L248.3,228z"/>
			<path class="st14" d="M203.3,162.2c0,0-0.9-13.8,3.5-21.2c4.4-7.4,10.7-13.5,13.9-16.7s12.5-11.9,20.2-11.5s12.4-1.4,15.7,3.2
				c3.3,4.6,7.5,6.3,5.2,10s-4.7,6.8-4.3,9.9s1.6,5.2,2.6,8.8c1,3.6,7.3,11.9,7.1,15.7c-0.1,3.9-30,42.9-30,42.9s-10.4,0.8-13.8,5.1
				c-3.4,4.3-3.6,6-3.6,6s-2.4-2.9-5.7-9.4c-3.3-6.5-7.1-9.4-6.5-15.5c0.6-6.1,0.2-8.3,0.6-11.9c0.4-3.6,2-4.2,0.8-6.4
				S203.3,162.2,203.3,162.2z"/>
			<path class="st14" d="M272,169.8c0,0-3.1-6.8-2-12.5c1.1-5.7,1.8-7.6,3.3-12.3s3.1-7.5,2.2-10.6c-0.9-3.1-5.8-7.5-5-10.5
				c0.8-3,2.1-9.5,7.5-10.6s4-4,11.6-2.8c7.6,1.3,15.7,5.9,18.6,7.5c2.9,1.6,13.9,10.3,15.3,12.7s6.8,8.4,8,16.8
				c1.2,8.4,2,9.7-0.1,12.2c-2.1,2.4-5.1,4.3-4.4,6.4s2.3,16,2.4,17.7c0.1,1.7,3.1,6.3-1.3,13c-4.4,6.8-4.7,12.2-7.5,9.9
				c-2.8-2.4-17-12.5-19.7-17.1c-2.7-4.6-27.1-16.2-27.1-16.2L272,169.8z"/>
			<path class="st16" d="M265.1,172.4c-4.2,0.6-16.7,0.8-26.1,17s-9.4,23.4-8.9,25.2c0.4,1.8-0.9,4.4,2.5,7.8
				c3.4,3.4,7.5,6.8,9.1,10.7c1.6,3.9,2.2,7.8,4.6,5.5c2.4-2.3,7.9-8.6,12.9-15.7c5.1-7.1,9.7-6.9,9.6-10.1
				c-0.1-3.2,0.5-0.4,2.6,1.5s5.6,2.1,7.5,5s5.4,9.6,8.4,11.1c3,1.5,3.8,6.2,6.6,5.2c2.9-1,4.1-2.2,7-6.7c2.9-4.5,8.2-8.8,8-11.9
				c-0.1-3.1,0.6-7.9-0.5-11.7c-1.1-3.8-6.1-13.6-8.2-16.3s-9.3-10.7-12.6-12.4s-13.2-4.2-15.6-4.6
				C269.8,171.6,265.1,172.4,265.1,172.4z"/>
			<path class="st15" d="M265.9,179.7c-1.9-0.3-5.1-1.1-7.2-0.4s-5.9,3.7-5.8,5.5c0.1,1.7-0.3,2.3,0.2,4.7c0.5,2.4,5.5,4.4,5.5,4.4
				s-0.3,2.5,0.5,4.3c0.8,1.8,2.2,4.8,3.7,4.7s10.9,2.7,12.8-1.3c1.8-4,0.3-8.7,0.3-8.7s2.6-0.5,4.5-2.2c1.9-1.7,2.8-5.3,1.1-7.4
				s-4.9-5.7-7.8-5.6C270.9,177.9,265.9,179.7,265.9,179.7z"/>
			<path class="st17" d="M243.7,156.6c0,0-1.8-4.4-9-3c-7.1,1.4-10.7,7.7-10.7,7.7l0,4.8c0,0,0,0,0,0c0.1,1.7,0.7,4.5,1.9,5.9
				c1.5,1.8,5.4,1.4,8.2,1c2.7-0.4,6.1-1.9,7.8-3.2c1.8-1.3,3.4-8,3.4-8C247.4,162.7,243.7,156.6,243.7,156.6z M227.2,160.6
				c0,0-0.1,0.1-0.1,0.1C227.1,160.6,227.1,160.6,227.2,160.6C227.2,160.6,227.2,160.6,227.2,160.6z"/>
			<g>
				<path class="st18" d="M245.7,161.2c0,0-1.5,6.3-3.1,7.5c-1.6,1.2-4.7,2.6-7.2,3s-6.1,0.7-7.6-1c-1.4-1.7-2-5.7-1.7-6.6
					s2.2-3.7,3.4-4.5c1.2-0.8,5.4-2.8,6.4-2.8c1,0,5.1,0,6.3,1S245.7,161.2,245.7,161.2z"/>
				<g>
					<path class="st19" d="M237.1,156.9c2.5,0,3,0,4.5,0.7c0.5,1,1.3,3.1,1.3,4.2c0,4-3.3,7.2-7.2,7.2c-3.9,0-7.1-3.3-7.1-7.3
						c0-1.1,0.3-2.1,0.7-3C231,157.9,234.3,156.8,237.1,156.9z"/>
					<ellipse transform="matrix(8.333074e-03 -1 1 8.333074e-03 73.0622 395.3123)" cx="235.8" cy="160.8" rx="4.5" ry="4.5"/>
					
						<ellipse transform="matrix(8.333074e-03 -1 1 8.333074e-03 73.6593 390.98)" class="st18" cx="234" cy="158.4" rx="1.1" ry="1.1"/>
				</g>
				<path class="st15" d="M226,165.3c0,0,2-7.1,8-8c6-0.9,9.8,3.1,11.7,4c1.9,0.9-1.5-4.8-1.5-4.8s-1.7-4.1-8.3-2.8
					s-9.9,7.2-9.9,7.2L226,165.3z"/>
			</g>
			<path class="st17" d="M287.5,160.3c0,0,2.3,6.6,4.2,7.7c1.9,1.1,5.3,2.3,8.1,2.4c2.8,0.1,6.7,0.1,8-1.9c1-1.5,1.4-4.3,1.3-6
				c0,0,0,0,0,0l-0.5-4.8c0,0-4.1-5.9-11.4-6.6s-8.6,3.9-8.6,3.9S285.5,161.5,287.5,160.3z M305.5,157.4c0,0-0.1-0.1-0.1-0.1
				c0,0,0,0,0,0C305.5,157.3,305.5,157.4,305.5,157.4z"/>
			<g>
				<path class="st18" d="M287.4,158.7c0,0,2.1,6,3.8,7c1.7,1,4.9,2.1,7.4,2.2s6.1,0.1,7.3-1.7s1.4-5.7,1-6.6
					c-0.4-0.9-2.5-3.4-3.8-4c-1.3-0.6-5.5-2.2-6.6-2s-5,0.5-6.1,1.6C289.4,156.1,287.4,158.7,287.4,158.7z"/>
				<g>
					<path class="st19" d="M295.4,153.6c-2.5,0.3-2.9,0.3-4.4,1.1c-0.4,1-1,3.1-0.9,4.2c0.4,3.9,3.9,6.7,7.8,6.2
						c3.9-0.4,6.7-3.9,6.2-7.8c-0.1-1.1-0.5-2-1-2.9C301.5,154,298.1,153.3,295.4,153.6z"/>
					<ellipse transform="matrix(0.9942 -0.1078 0.1078 0.9942 -15.2248 32.9287)" cx="297.1" cy="157.3" rx="4.4" ry="4.4"/>
					
						<ellipse transform="matrix(0.9942 -0.1078 0.1078 0.9942 -14.9369 33.0876)" class="st18" cx="298.7" cy="154.7" rx="1.1" ry="1.1"/>
				</g>
				<path class="st15" d="M307.2,160.7c0,0-2.7-6.7-8.6-7s-9.3,3.9-11.1,5c-1.8,1.1,1-4.8,1-4.8s1.2-4.2,7.9-3.5
					c6.6,0.6,10.4,6,10.4,6L307.2,160.7z"/>
			</g>
		</g>
	</g>
	<path class="st20" d="M545.4,291v20.9l-6.5,14.8l12.6,20.6h13.8c0.5-2.4-0.4-4.9-2.3-6.3c-2.2-1.6-4.7-1.1-5-1
		c-0.9-3.7-1.8-7.4-2.8-11.1l11.3-8.6c2.3-2.8,5-6.7,7-11.8c4.1-10,3.7-19,3.2-23.8c-0.6-3-1.3-5.9-1.9-8.9l-13.6-23.2L545.4,291z"
		/>
	<path class="st20" d="M689.3,340.1h5.6c2.1,0.1,3.9,1.4,4.4,3.2c0.6,2.1-0.7,3.9-0.9,4.1c-4,0-8.1,0-12.1,0L673,331.2l10.9-52.9
		h18.9l-8.3,37.2l-6.6,11.5L689.3,340.1z"/>
	<polygon class="st21" points="545.3,304 559,289 557.9,258.4 545.8,289.6 	"/>
	<polygon class="st21" points="678.6,338 682.8,330.6 686.3,310.2 693.1,288.2 678.6,300.1 673.7,327.7 	"/>
	<path class="st22" d="M695.6,169c-2.2,3.7-5.2,8.3-9.6,12.9c-6,6.3-12.1,10.3-16.6,12.9c-2.2,0-4.3,0-6.5,0c-2.4,0-4.8,0-7.1,0
		c-2.4,2.8-4.9,5.6-7.3,8.4l-10.4-2.6l-7.7,7.9l-42.3-5.8c-4-0.7-8.6-1.3-13.8-1.6c-6.8-0.3-12.8,0.1-17.8,0.8
		c-6.7,1.3-14.1,3.1-22.1,5.8c-5.1,1.7-9.8,3.6-14,5.5c-2.8,3-6.1,7-9.1,12.3c-4.5,8-6.3,15.5-7.1,20.6c0.3,4.8,0.7,9.6,1,14.4
		c1,2.6,2.1,5.2,3.1,7.8c-0.3,1.2-0.5,2.4-0.7,3.6c-0.7,4.9-0.7,9.4-0.4,13.2c0.7,6.8,1.4,13.6,2.1,20.5c-0.6,4.3-1.7,9.9-4.4,16
		c-1.6,3.6-3.4,6.7-5,9.2c2.5,5.1,5,10.5,7.5,16.2c2,4.7,3.9,9.3,5.6,13.8c5.6,0,11.2,0,16.8,0c0.1-0.4,0.5-3.7-1.8-6.2
		c-1.5-1.6-3.2-2-3.9-2.1c-1.7,0.2-3.5,0.5-5.2,0.7c-1.6-6.4-3.2-12.7-4.7-19.1c2.8-1.1,6.1-2.8,9.6-5.2c4.7-3.2,8-6.7,10.3-9.5
		c1.4-5.2,2.8-10.5,4.2-15.7l6.8-7.9l8.9-8.4l2.6-22.3l3.8-2.2l3.6,7.7c1.6,1.7,3.3,3.4,5.2,5.1c7.7,6.9,15.7,11.4,22.6,14.3
		c6.6,2.8,14.2,5.6,22.9,8c7.7,2.1,14.8,3.5,21.2,4.5c4.4,0.6,8.7,1.1,13.1,1.7l6.3-0.5l4.2-5.2l-0.5,21.5l0.5,11l0.5,9.4l3.7,10.5
		c2.2,3.8,4.4,7.6,6.5,11.4c2.6-0.3,5.1-0.6,7.7-0.9c3.3-0.2,6.6-0.4,9.9-0.6c0.2-0.7,0.3-2-0.2-3.4c-1.1-2.9-4.5-3.7-5.1-3.9
		c-3.1-0.7-5.5,0.6-6.2,1c-0.3-3.5-0.7-7-1-10.5l1.6-5.8l2.6-6.3l2.6-16.3l5.2-14.7l11.5-11c2.3-2,4.8-4.3,7.3-7
		c2.5-2.6,4.6-5.1,6.4-7.5c1-3.2,2-6.8,2.9-10.6c1-4.1,1.7-8,2.3-11.7c3.6-3.3,7.4-6.6,11.3-10c7.4-6.3,14.7-12,21.7-17.3
		c-3.3-3.4,27.9-5.6,24.5-9c-2.9-3,5.8-8.4,5.5-12.6c-0.5-6-3.6-22-12-27.8c-3.1-2.2-2.5-13.5-13.4-20.7c-9.5-6.3-22.9-6.6-27.3-6
		C705.9,152.6,699.7,173.2,695.6,169z"/>
	<path class="st21" d="M711.2,151.8c2.2-5.7,4.5-11.4,6.7-17.2l-2-11.8c1.7,1.8,3.5,3.9,5.2,6.4c6.2,9.1,8.1,18.3,8.7,24.3
		C723.6,152.9,717.4,152.4,711.2,151.8z"/>
	<polygon class="st22" points="510.1,231.3 517.3,217.3 501.2,220.4 498,231.3 	"/>
	<polygon class="st20" points="516.3,217.5 502.7,231.3 508.6,231.3 	"/>
	<path class="st22" d="M692.6,175.3l2-8.7c-0.9-3.8-1.8-7.6-2.7-11.4c-0.4-1.7-0.8-3.4-1.2-5.1c0.4-2,0.9-4.1,1.6-6.3
		c1.1-3.8,2.5-7,3.9-9.8c0.2-4.1,0.3-8.4,0.3-12.9c0-4-0.1-7.8-0.3-11.5c2.3,1.4,4.5,2.9,6.8,4.3l6.2,20.5l7.5,11l5.5,4.3
		c3-0.9,7.4-1.7,12.8-1.4c3.7,0.2,6.9,1,9.2,1.8c3,2.1,6.4,4.1,10.3,6.1c1.9,0.9,3.7,1.8,5.4,2.5c1.1,0.9,2.1,4.8,3.5,7.4
		c1.9,3.7,2.6,4.9,2.4,6.4C741.4,173.4,717,174.4,692.6,175.3z"/>
	<path class="st20" d="M532.9,319.1c0.9-3.9,1.9-7.9,2.8-11.8l-12.1-19.1l19.5,8.1c-1.1,2-2.2,4-3.3,5.9c-0.8,3-1.9,6.4-3.5,10
		C535.2,314.8,534.1,317.1,532.9,319.1z"/>
	<polygon class="st21" points="655.2,303.3 659.4,298 650.4,286.7 	"/>
	<path class="st21" d="M708.8,279.6l4-31.8l9-11.8l-9.4-21.1l12,13.7c7.2-0.2,15.6,0,22.8-0.3c-3,2.5-8.4,5.8-13.3,10.2
		c-11.7,10.4-14,12.5-15.1,15.3C718,255.4,712.4,271.9,708.8,279.6z"/>
	<polygon class="st20" points="655.7,194.7 670.6,211.2 669.4,194.7 	"/>
	<polygon class="st20" points="638,200.4 652.2,215 648.4,203.1 	"/>
	<path class="st20" d="M552.8,202.5c11.5,1,23,1.9,34.4,2.9l18.1,7.7c4.9-2.1,9.8-4.1,14.7-6.2c-4.1-0.5-8.1-0.9-12.2-1.4
		c-7-1.1-14-2.1-21.1-3.2c-5-0.9-11.1-1.6-18.1-1.5C562.6,201,557.2,201.7,552.8,202.5z"/>
	<polygon class="st22" points="766.9,173.7 764.8,179.5 767.6,175.3 	"/>
	<polygon class="st22" points="775.7,180.9 774.8,183.2 772.3,184.9 772.7,188.5 776.2,189.4 778.6,197.4 777.7,202.8 778.6,206.1 
		775.9,212.2 782.1,207.3 780.7,196.5 	"/>
	<path class="st20" d="M753.3,223.8l2.5-9.5l-2.5-15.3l12.8-17.5l-4.4-6.4l-2-11.6l-8.6-7.9l-21.7-3.2l-6.9-3l-13.4-15.1
		c-1.3,6.6-3.8,14.9-8.3,23.6c-1.8,3.5-3.8,6.6-5.7,9.3c-1,2.6-2.1,5.2-3.1,7.9l16.3,20.2l1.4,17.5l14.6,15.9l22.8-0.3L753.3,223.8z
		"/>
	<polygon class="st21" points="725.5,230.6 709.7,212.7 706.1,192.9 696.2,184.5 691.9,175.1 700.7,185.1 709.7,191.2 713.4,212.7 	
		"/>
	<polygon class="st21" points="701.5,165.8 711.6,169.2 718.1,158.1 724.6,155 717.6,153.8 709.4,164.9 	"/>
	<polygon class="st21" points="748.5,209 746.6,192.4 760.1,181.5 751.1,196.7 	"/>
	<polygon class="st21" points="739.3,176.2 751.8,164.5 754.1,167.9 751.1,167.2 	"/>
	<polygon class="st20" points="738,235.3 755.3,225.3 776,219.9 780.4,212.6 775.9,212.2 772.7,217.4 752.6,222.6 	"/>
	<polygon class="st20" points="766.9,173.7 761.1,161.5 764,163.5 766.2,169.2 	"/>
	<path class="st21" d="M700.8,112.8l4.2,17.9c-0.1,10.5-0.1,21-0.2,31.5c2.2-2,4.7-4.2,7.6-6.4c2.4-1.8-1.5-7.5,0.7-8.8
		c-3.8-6.9-1.4-9.7-5.2-16.6l-5.1-16.9L700.8,112.8z"/>
	<path class="st21" d="M754.8,174.1l0.7,7.8c-2.1,2.2-5.3,2.6-7.3,1.2c-2-1.3-2.2-3.8-2.2-4.1c0-0.2,0.1-3.3,2.8-4.9
		C750.6,173,752.9,173,754.8,174.1z"/>
	<path class="st23" d="M760.5,179.4c-1.5-1.8-2.9-3.6-4.4-5.5c-4.7-1.2-8.5,1.3-8.8,3.7c-0.3,2.2,2.2,5.3,6.4,6
		C756,182.2,758.3,180.8,760.5,179.4z"/>
	<path class="st24" d="M752.6,177.6l2.9-0.9l-2.9-1.9c-3.2-0.2-5.5,2.5-5.3,4.7c0.2,2.1,2.7,4.1,5.7,3.6c0.8-0.4,1.7-0.8,2.5-1.2
		l0.7-3.4l-2.8,1L752.6,177.6z"/>
	<polygon class="st15" points="775.9,212.2 783.4,202.6 784.7,206.3 780,213.4 	"/>
	<polygon class="st13" points="700.8,157.9 702.8,149.9 702.8,132.1 704.8,129.4 709.8,145.8 709.8,152.9 706,161.6 700.1,159.8 	
		"/>
	<polygon class="st21" points="695.3,163.7 695.3,149.3 697.4,134.4 699.1,148.1 697.2,163.7 	"/>
	<path class="st25" d="M777.7,180l-7.6,5.2c-4.9,9.4-4.3,18.7,0.6,22.9c1,0.8,3,2.1,6.4,2.4c2-2.2,4.1-4.4,6.1-6.7v-8.1L777.7,180z"
		/>
	<path class="st15" d="M769.6,176.7v5c0.9,0.4,2.5,1,4.5,1.1c1.6,0.1,2.9-0.2,3.8-0.4c0-1,0-2.1,0-3.1l-1.7-2.5H769.6z"/>
	<circle class="st15" cx="769.2" cy="192.9" r="0.8"/>
	<circle class="st15" cx="766.2" cy="196.5" r="0.8"/>
	<circle class="st15" cx="769.2" cy="197.5" r="0.8"/>
	<circle class="st15" cx="766.2" cy="202.6" r="0.8"/>
	<circle class="st15" cx="772.3" cy="201.8" r="0.8"/>
	<circle class="st15" cx="827.3" cy="155.5" r="0.8"/>
	<circle class="st22" cx="773.8" cy="197.4" r="0.8"/>
	<circle class="st22" cx="773.1" cy="191.9" r="0.8"/>
	<path class="st14" d="M634.6,358.4l4.9,27.8c0,0,0.3,4.5,13.9,7.9c13.6,3.3,35.3,2.4,39.1,0s9-12.1,9-12.1s7.5-20.3,9.6-25.3
		c2-5-5.5,10.7-12.6,16.4c-7.2,5.7-26.6,14.9-35.5,11.2c-8.9-3.7-15.3-3.2-17.4-14.3S634.6,358.4,634.6,358.4z"/>
	<path class="st1" d="M165,258.9c0,0-12.2-33.8-13.3-43c-1-9.3-1.2,12.7-1.2,12.7s2.6,16.8,7.2,24.8
		C162.4,261.2,165,258.9,165,258.9z"/>
	<path class="st14" d="M232.4,311c0,0-12.2-33.8-13.3-43c-1-9.3-1.2,12.7-1.2,12.7s2.6,16.8,7.2,24.8
		C229.8,313.4,232.4,311,232.4,311z"/>
	<path class="st14" d="M290.7,304.5c0,0,12.2-33.8,13.3-43c1-9.3,1.2,12.7,1.2,12.7s-2.6,16.8-7.2,24.8
		C293.3,306.9,290.7,304.5,290.7,304.5z"/>
</g>
</svg>
