<svg xmlns="http://www.w3.org/2000/svg" enable-background="new 0 0 350.5 350.7" viewBox="0 0 350.5 350.7">
  <style>
    .st1{fill:#e4d1bf}.st6{fill:#a59892}.st7{fill:#d7bb9e}.st8{fill:#333}.st10{fill:#c9a47e}.st11{fill:#fff}.st12{fill:#423d41}
    circle:hover {
      fill: #f90; /* solid background-color */
      fill: url(#gradient); /* gradient background-color; see markup below */
      }
  </style>
  <defs>
    <!-- Gradient markup for SVG -->
    <!-- Gradient ideas: https://webgradients.com -->
    <linearGradient id="gradient">
      <stop offset="5%" stop-color="#a1c4fd" />
      <stop offset="95%" stop-color="#c2e9fb" />
    </linearGradient>
  </defs>
  <circle cx="175.3" cy="175.3" r="175.3" fill="#faf6f2"/>
  <path d="M115.4 230.4c-7.7 3.8-22.9 61.1-31.4 95.5 26.3 15.8 57.1 24.8 90 24.8 29.2 0 56.7-6.7 80.9-19.3-6.9-31.1-44.2-89-44.2-89s-84.2-17.4-95.3-12z" class="st1"/>
  <g opacity=".65">
    <defs>
      <filter id="Adobe_OpacityMaskFilter" width="116.7" height="120.4" x="105.1" y="181.2" filterUnits="userSpaceOnUse">
        <feFlood flood-color="#fff" flood-opacity="1" result="back"/>
        <feBlend in="SourceGraphic" in2="back"/>
      </filter>
    </defs>
    <g mask="url(#SVGID_1_)">
      <path fill="#323234" d="M119.6 181.2s-2.5 15.3-10.8 32.5 0 44.7 0 44.7 6.7 19.8 47.1 38.8c43.8 20.6 65.9-38.7 65.9-38.7l-9-70.1-93.2-7.2z"/>
    </g>
  </g>
  <path d="M95.3 202c-.2-2.8-.9-6.5-3.6-9.2-2-2-3.8-2.2-6.6-4 0 0-4.1-2.6-8-8.7-4.4-7-.7-14.1-2.8-22.6-1.2-5-15-29.2-14.6-39.5.5-10.4.8-16.7 4.4-20.6 3.5-3.9 10.8-10.5 17.5-7.3 6.7 3.2 21.3 14.6 24.8 19.9 3.5 5.3 11.2 16.4 13.3 19.6 2.1 3.2 4.1 10.4 10.4 14.8 6.3 4.4 13.7-.5 19 .6 5.3 1.1 4.9 2.1 7.1 1.8 2.2-.3 2.8-4.4 9.2-4 6.3.4 8.2.7 10.8-.1s6.6-5.1 7.7-8.9c1.1-3.8 11.2-34.1 12.9-36.7 1.7-2.6 13.4-18.9 19.4-21.5 5.9-2.6 10.7-4.2 16-.4 5.4 3.7 8.8 10.9 9.2 13.2.5 2.3.9 9 1.5 12.3.6 3.3.3 10.6-.2 13.6-.5 2.9-5.7 21.2-5.3 22.8.4 1.6 1.6 6.4 2.7 9.8 1.1 3.4 2.1 6.3 2.1 9.2 0 2.9 1.3 5.4-2.8 10-4.2 4.6-9 9.5-9 10.7 0 1.2-.8 2.1-.5 4.5.3 2.3 1 3.9.4 5.7-.6 1.8-3.8 6.4-4 8.4-.3 2.1-1.8 3.4-.9 5s3.3 8.9 3.5 11.9c.2 3 .7 9.9.4 11.5-.3 1.6-4.6 12.6-6.3 15.3-1.7 2.7-94.6 1.9-94.6 1.9l-33.1-39z" class="st1"/>
  <path d="M221.6 101.5s-26.7 8.2-25.2 22.6-2.2 17.5 8.9 27.2c11.1 9.7 25.6 16.4 23.6 9.1-2.1-7.3-9.8-6.4-6-18.5s9-11.9 7.8-22.5c-1.5-10.7-9.1-17.9-9.1-17.9zM85.2 118.1s27.9 1.6 29.9 15.9 6.4 16.4-2.1 28.5-20.9 22-20.7 14.5c.2-7.6 8-8.5 1.4-19.4s-11.6-9.4-12.9-20 4.4-19.5 4.4-19.5z" class="st6"/>
  <path d="M115.4 250.4c1.3 5.7 1.4 9.7 3.9 13.7s2.1 6.6 5.1 8.5c3 1.9 4.2 7.1 7.7 6.7 3.5-.4 13.9-.9 13.9-.9s4.2-.5 7.6 1.4 8.5 4.3 11.8 3.3c3.3-.9 5.2-2 6.7-3.5s3.1 1.2 6.3.8 10.4-2.1 12.5-4.2.1-3.9 5-5c4.9-1 9.6-1.1 12.7-1.7 3.1-.6 9.3-4.6 8.8-8s3.3-10.2 2.8-13.9c-.4-3.7.5-4.6 1.6-6.8 1.1-2.3-9.9-9.1-13.8-11.8-3.9-2.7-5.2-11-17.2-9.6s-42.2 8.6-48.4 9.9c-6.2 1.3-14.9 8.7-18.5 13.9-3.5 5.4-8.5 7.2-8.5 7.2z" class="st7"/>
  <path d="M147.2 267c1.3-2.1 3.7-2.7 8.4-5.6 4.7-2.9 8.5-5.9 12-6.2 2.3-.2 5.1-.7 14.5 4.2 7.4 7.4 9.7-10 9.7-10l-25.1-3.2-19.3 10.7-.2 10.1z" class="st8"/>
  <path d="M94.7 201.4s-2.1-14.4 2-22.6c4-8.1 10.2-15 13.3-18.7 3.1-3.6 12.2-13.5 20.4-13.6 8.2-.1 12.9-2.5 16.7 2.1 3.8 4.5 8.4 6 6.2 10.1-2.1 4.1-4.4 7.5-3.7 10.7.7 3.2 2.1 5.4 3.4 9s8.6 11.9 8.7 16c.2 4.1-28.1 47.5-28.1 47.5s-10.8 1.6-14.1 6.4c-3.2 4.8-3.3 6.6-3.3 6.6s-2.7-2.9-6.7-9.5-8.2-9.3-8.1-15.8-.5-8.8-.4-12.6c.1-3.8 1.8-4.6.3-6.8-1.4-2.1-6.6-8.8-6.6-8.8zM167.5 204s-3.8-6.9-3.1-12.9c.8-6.1 1.3-8.1 2.5-13.2s2.7-8.1 1.4-11.3c-1.2-3.2-6.7-7.5-6.1-10.7.6-3.2 1.4-10.1 7-11.8 5.6-1.7 3.9-4.5 12-3.8 8 .7 17 4.9 20.1 6.4 3.2 1.4 15.4 9.7 17 12.2 1.6 2.5 7.8 8.3 9.7 17s2.9 10.1.9 12.8c-2 2.7-5 4.9-4.1 7.1s3.7 16.6 3.9 18.4c.2 1.8 3.8 6.3-.3 13.8-4.1 7.4-4 13.2-7.1 11-3.1-2.3-18.8-11.8-22-16.4-3.2-4.6-29.8-14.9-29.8-14.9l-2-3.7z" class="st7"/>
  <path fill="#7a6f6b" d="M160.5 207.2c-4.3.9-17.5 2.1-26 19.9s-8 25.4-7.4 27.2c.6 1.8-.6 4.6 3.3 8 3.8 3.3 8.4 6.6 10.4 10.5 2 3.9 2.9 8 5.2 5.5 2.4-2.6 7.6-9.7 12.3-17.5 4.8-7.8 9.7-8 9.3-11.4-.4-3.4.5-.5 2.9 1.4s6 1.8 8.3 4.6c2.3 2.8 6.4 9.7 9.7 11 3.3 1.3 4.4 6.2 7.4 4.9 2.9-1.3 4.1-2.6 6.8-7.6s7.9-9.9 7.5-13.1c-.4-3.2 0-8.3-1.5-12.2-1.4-3.9-7.5-13.8-9.9-16.4s-10.6-10.5-14.3-12-14.2-3.4-16.7-3.6-7.3.8-7.3.8z"/>
  <path d="M161.9 214.9c-2-.2-5.4-.7-7.6.2-2.2.9-5.9 4.4-5.7 6.2s-.2 2.5.6 5 6.2 4.1 6.2 4.1-.1 2.6.9 4.5 2.7 4.9 4.2 4.7c1.5-.2 11.7 1.9 13.3-2.4 1.6-4.3-.3-9.1-.3-9.1s2.7-.8 4.6-2.7c1.9-1.9 2.5-5.8.6-7.9-1.9-2.1-5.6-5.6-8.6-5.2-3.2.3-8.2 2.6-8.2 2.6z" class="st8"/>
  <path d="M136.7 192.3s-2.3-4.5-9.6-2.5c-7.4 2-10.6 8.9-10.6 8.9l.3 5.1v-.1c.2 1.8 1.1 4.7 2.4 6 1.8 1.7 5.8 1 8.7.4 2.8-.6 6.2-2.5 8-4 1.8-1.5 2.9-8.7 2.9-8.7 2.3 1.1-2.1-5.1-2.1-5.1zm-17.1 5.6l-.1.1.1-.1c0-.1 0-.1 0 0z" class="st10"/>
  <path d="M139.1 197s-1.1 6.8-2.7 8.1c-1.6 1.4-4.7 3.1-7.4 3.7-2.6.6-6.4 1.2-8-.4-1.6-1.6-2.5-5.8-2.3-6.8.2-1 2-4.1 3.2-5s5.4-3.3 6.5-3.4c1.1-.1 5.3-.4 6.7.5s4 3.3 4 3.3z" class="st11"/>
  <path d="M129.8 193.2c2.7-.2 3.1-.2 4.8.4.6 1 1.7 3.1 1.7 4.3.3 4.2-2.8 7.8-7 8.1-4.1.3-7.7-2.9-8-7.1-.1-1.1.1-2.2.5-3.2 1.6-1 5.1-2.3 8-2.5z" class="st12"/>
  <ellipse cx="128.8" cy="197.4" rx="4.7" ry="4.8" transform="rotate(-3.844 128.766 197.405) scale(.99995)"/>
  <ellipse cx="126.6" cy="195" class="st11" rx="1.2" ry="1.2" transform="rotate(-3.844 126.588 194.962) scale(.99995)"/>
  <path d="M118.8 202.9s1.5-7.6 7.7-9.1 10.5 2.4 12.6 3.3c2.1.8-1.9-4.9-1.9-4.9s-2.1-4.2-8.9-2.3c-6.8 1.9-9.8 8.3-9.8 8.3l.3 4.7z" class="st8"/>
  <path d="M183 192.7s2.9 6.7 5 7.7 5.8 2 8.7 1.9c2.9-.1 7-.5 8.3-2.6 1-1.6 1.1-4.7.9-6.4l-.9-5s-4.8-5.9-12.5-6c-7.7-.1-8.7 4.8-8.7 4.8s-2.8 7-.8 5.6zm18.7-4.4l-.1-.1s.1 0 .1.1z" class="st10"/>
  <g>
    <path d="M182.8 191s2.7 6.1 4.5 7 5.3 1.8 7.9 1.7c2.6-.1 6.4-.4 7.6-2.4 1.2-1.9 1-6.1.5-7s-2.9-3.4-4.3-3.9c-1.4-.6-6-1.8-7-1.6s-5.2 1-6.3 2.1c-1 1.3-2.9 4.1-2.9 4.1z" class="st11"/>
    <path d="M190.8 185.1c-2.6.5-3 .5-4.5 1.5-.3 1.1-.8 3.4-.6 4.5.7 4 4.6 6.7 8.7 5.9s6.7-4.6 5.9-8.7c-.2-1.1-.6-2.1-1.3-3-1.8-.3-5.4-.7-8.2-.2z" class="st12"/>
    <ellipse cx="192.8" cy="188.9" rx="4.6" ry="4.6" transform="rotate(-10.517 192.763 188.899)"/>
    <ellipse cx="194.3" cy="186" class="st11" rx="1.2" ry="1.2" transform="rotate(-10.517 194.254 186.056)"/>
    <path d="M203.7 191.6s-3.3-6.9-9.6-6.7c-6.3.2-9.5 4.9-11.3 6.2-1.8 1.3.6-5.1.6-5.1s1-4.5 8-4.4c7 .1 11.4 5.5 11.4 5.5l.9 4.5z" class="st8"/>
  </g>
</svg>
